Coordinates
version=1
nRows=18
nColumns=22
inDegrees=yes

Units are S.I. units (second, meters, Newtons, ...)
If the header above contains a line with 'inDegrees', this indicates whether rotational values are in degrees (yes) or radians (no).

endheader
time	pelvis_tilt	pelvis_list	pelvis_rotation	pelvis_tx	pelvis_ty	pelvis_tz	hip_flexion_r	hip_adduction_r	hip_rotation_r	knee_angle_r	ankle_angle_r	subtalar_angle_r	hip_flexion_l	hip_adduction_l	hip_rotation_l	knee_angle_l	ankle_angle_l	subtalar_angle_l	lumbar_extension	lumbar_bending	lumbar_rotation
      3.42000000	     -9.63538839	      2.92806552	    -22.10310501	      1.28777914	      0.98193297	      0.50020466	     19.29377203	      2.04747611	      0.31842784	    -26.80743449	     21.25589307	     -5.07208197	     16.97284970	      0.08088001	     -4.35565998	    -22.60800079	     21.71995987	     -0.17589378	      2.22793131	      1.75979205	      7.37637649
      3.43000000	     -9.62498609	      2.90798286	    -21.91837310	      1.28841772	      0.98199535	      0.50021301	     19.16872111	      2.00677605	      0.15632500	    -26.70876605	     21.29927997	     -5.09143738	     16.81691947	      0.11258974	     -4.27115794	    -22.38578176	     21.71222920	     -0.17707413	      2.22439060	      1.75314017	      7.28281482
      3.44000000	     -9.66026650	      2.90726619	    -21.76293845	      1.28895696	      0.98195069	      0.50026349	     19.10408611	      1.98691041	      0.06653130	    -26.61366543	     21.34270792	     -5.10790605	     16.71817657	      0.13777169	     -4.19441027	    -22.17047734	     21.73271449	     -0.17683063	      2.28403969	      1.74466832	      7.24361852
      3.45000000	     -9.69088752	      2.90569434	    -21.59256966	      1.28943588	      0.98187980	      0.50026468	     19.04867763	      1.95412660	     -0.08056886	    -26.53725032	     21.39714220	     -5.13372559	     16.63270086	      0.16504433	     -4.12615246	    -21.97729380	     21.74270391	     -0.18455543	      2.33456927	      1.73542704	      7.17812603
      3.46000000	     -9.73017373	      2.90746661	    -21.42598250	      1.28983299	      0.98177038	      0.50025173	     19.01624084	      1.92564426	     -0.21952451	    -26.47510605	     21.45588142	     -5.16507402	     16.57388247	      0.19049351	     -4.05990416	    -21.80688417	     21.75825884	     -0.19699915	      2.39077034	      1.72614998	      7.11925048
      3.47000000	     -9.77209320	      2.91465301	    -21.25352792	      1.29017543	      0.98163013	      0.50020995	     19.00189301	      1.89255635	     -0.36084747	    -26.43271437	     21.52199729	     -5.20398045	     16.53907448	      0.22180508	     -3.98603941	    -21.66491559	     21.77228206	     -0.21307428	      2.45236683	      1.71092967	      7.05482495
      3.48000000	     -9.81500162	      2.92801196	    -21.07638413	      1.29045480	      0.98147023	      0.50013371	     19.00352264	      1.85501953	     -0.49369450	    -26.40646095	     21.59215856	     -5.25012281	     16.52712448	      0.26080841	     -3.90125629	    -21.55018496	     21.78396161	     -0.23220189	      2.51255926	      1.68780462	      6.98706162
      3.49000000	     -9.85355448	      2.94678943	    -20.89404902	      1.29066727	      0.98130755	      0.50001468	     19.01492682	      1.81178212	     -0.61333768	    -26.39437440	     21.66720604	     -5.30215476	     16.53113000	      0.31044607	     -3.79900203	    -21.45849902	     21.79366115	     -0.25236756	      2.56079447	      1.65615168	      6.91436679
      3.50000000	     -9.88301384	      2.96746108	    -20.70103101	      1.29085255	      0.98115640	      0.49986539	     19.02608708	      1.76265262	     -0.72587585	    -26.39639440	     21.73555772	     -5.36378823	     16.54460881	      0.36923803	     -3.67573562	    -21.39524542	     21.79213388	     -0.27784618	      2.60200933	      1.61519944	      6.82869434
      3.51000000	     -9.90339260	      2.98693215	    -20.50220392	      1.29098914	      0.98103035	      0.49968703	     19.03200549	      1.71249523	     -0.82668363	    -26.40068339	     21.79556943	     -5.43226574	     16.56340791	      0.43288463	     -3.53398443	    -21.35143202	     21.78423837	     -0.30639204	      2.62689559	      1.57038960	      6.73454628
      3.52000000	     -9.91321379	      3.00298011	    -20.29593583	      1.29109611	      0.98093846	      0.49948805	     19.02707302	      1.66164817	     -0.91928202	    -26.40401997	     21.84891778	     -5.50245865	     16.58020424	      0.50022126	     -3.36892310	    -21.32103231	     21.77038366	     -0.33173521	      2.63716680	      1.52274217	      6.62412320
      3.53000000	     -9.91619898	      3.01477243	    -20.07916431	      1.29117479	      0.98088074	      0.49926914	     19.01214830	      1.60939655	     -1.01955407	    -26.40185153	     21.88984848	     -5.57597593	     16.59825114	      0.56924929	     -3.17862131	    -21.30296362	     21.74611654	     -0.35414195	      2.63673073	      1.47550947	      6.49543543
      3.54000000	     -9.91780529	      3.02100043	    -19.86031068	      1.29124083	      0.98085201	      0.49904716	     18.98907560	      1.56001357	     -1.13096899	    -26.38940368	     21.91770293	     -5.65033973	     16.61668594	      0.63389880	     -2.97579832	    -21.29005792	     21.71581174	     -0.37263767	      2.63497417	      1.43393299	      6.36028832
      3.55000000	     -9.92220070	      3.02321133	    -19.64709477	      1.29128699	      0.98084825	      0.49881991	     18.96115011	      1.51489212	     -1.24884015	    -26.35963732	     21.93509265	     -5.71933788	     16.63450066	      0.69300385	     -2.77255012	    -21.27112082	     21.68288616	     -0.38447094	      2.63433421	      1.40116876	      6.22717456
      3.56000000	     -9.92887892	      3.01682475	    -19.44729742	      1.29136277	      0.98086181	      0.49862342	     18.92527153	      1.47732128	     -1.38580176	    -26.31967397	     21.94158354	     -5.78556024	     16.64353458	      0.73791508	     -2.58048362	    -21.24572911	     21.64821302	     -0.39232756	      2.64649416	      1.38022615	      6.10606535
      3.57000000	     -9.93940950	      3.00423984	    -19.27446316	      1.29141947	      0.98089162	      0.49844225	     18.88490898	      1.45140132	     -1.51741271	    -26.26060268	     21.93969302	     -5.84128217	     16.64358380	      0.76819796	     -2.41656527	    -21.20254879	     21.61741676	     -0.39445443	      2.65903821	      1.37525045	      6.00658301
      3.58000000	     -9.95070462	      2.98352594	    -19.12763955	      1.29146267	      0.98093672	      0.49827811	     18.83633295	      1.43622197	     -1.65155563	    -26.18474507	     21.93029848	     -5.88736051	     16.63192179	      0.78274944	     -2.28245164	    -21.14484087	     21.58972988	     -0.39220858	      2.67038328	      1.38557050	      5.92857037
      3.59000000	     -9.96128311	      2.95382692	    -18.99937831	      1.29148060	      0.98099494	      0.49811823	     18.77665885	      1.43107812	     -1.78967058	    -26.08949467	     21.91366982	     -5.92822526	     16.61022400	      0.78330097	     -2.16781954	    -21.07567813	     21.56431653	     -0.38744684	      2.67789636	      1.41034868	      5.86300719
